<?xml version="1.0" encoding="UTF-8" standalone="no"?>
<!-- Created with Inkscape (http://www.inkscape.org/) -->

<svg
   version="1.1"
   id="svg2"
   width="380.34903"
   height="259.6413"
   viewBox="0 0 380.34903 259.6413"
   xmlns="http://www.w3.org/2000/svg"
   xmlns:svg="http://www.w3.org/2000/svg">
  <defs
     id="defs6" />
  <g
     id="g8"
     transform="translate(-103.65948,-138.62052)">
    <g
       id="g11993">
      <path
         style="fill:#d40000"
         d="m 268.26225,370.30636 c -5.64636,-3.32643 -9.71586,-7.37828 -13.16323,-13.10609 -3.35123,-5.56811 -4.33439,-9.42335 -4.65469,-18.25257 -0.22372,-6.16712 -0.22372,-6.16712 13.51704,-3.48283 13.74076,2.68432 13.74076,2.68432 17.19588,7.97849 6.73363,10.31773 4.55836,9.60732 63.98761,20.89765 58.20811,11.05834 55.73742,10.8676 64.48611,4.97847 5.30871,-3.57356 7.69165,-6.81031 10.89723,-14.80179 8.03978,-20.04312 30.62298,-81.09312 31.32307,-84.6768 1.0501,-5.37547 -1.89014,-16.20662 -5.49868,-20.25575 -7.36755,-8.26711 -1.83201,-6.71973 -75.57146,-21.12497 -66.73846,-13.03757 -66.73846,-13.03757 -72.58914,-11.14492 -6.86117,2.21954 -13.46543,7.68932 -16.13315,13.36183 -1.89311,4.02528 -1.89311,4.02528 -15.42473,1.38188 -13.53165,-2.64345 -13.53165,-2.64345 -13.25547,-7.93873 0.15189,-2.91241 0.85067,-7.9034 1.55285,-11.09107 2.53997,-11.53086 13.08729,-21.92095 25.43472,-25.05558 5.89639,-1.49691 5.89639,-1.49691 95.20814,15.95044 89.31176,17.44733 89.31176,17.44733 94.36061,21.28077 10.44527,7.9308 15.92574,21.79929 13.50711,34.18013 -0.97705,5.00144 -32.27795,90.18246 -42.37795,115.32562 -5.06096,12.59889 -13.03272,19.82242 -25.25585,22.88533 -6.021,1.50877 -6.021,1.50877 -74.76373,-11.70044 -60.15864,-11.55978 -69.24717,-13.5064 -72.78229,-15.58907 z M 467.06563,270.19497 c 1.2905,-0.86869 2.44741,-2.09672 2.57093,-2.72896 0.35485,-1.81655 -2.15105,-5.34023 -4.06345,-5.71383 -2.09302,-0.40887 -5.32152,1.59786 -5.70171,3.54401 -0.3127,1.60068 2.39212,5.99848 3.86642,6.28649 0.5398,0.10546 2.03731,-0.51901 3.32781,-1.38771 z m 4.70785,-13.26657 c 1.88611,-1.26962 3.61511,-3.25965 3.84224,-4.4223 0.53371,-2.73202 -3.58573,-8.85169 -6.31775,-9.38541 -2.73203,-0.53371 -8.8517,3.58573 -9.38541,6.31775 -0.53371,2.73203 3.58572,8.85171 6.31775,9.38542 1.16264,0.22713 3.65706,-0.62583 5.54317,-1.89546 z M 363.22385,193.57504 c 1.37901,-3.46897 4.10893,0.30367 -27.19371,-37.58024 -6.79858,-8.22797 -13.07528,-15.99805 -13.94822,-17.26683 -0.87292,-1.26879 9.71114,8.84824 23.52015,22.48229 22.11959,21.83934 25.41102,24.73692 27.65965,24.35 3.45569,-0.5946 9.02846,0.58071 11.2162,2.36555 1.56105,1.27354 6.03501,-0.29253 34.65279,-12.12992 18.07319,-7.47575 31.80336,-12.97398 30.51152,-12.21828 -1.29186,0.75568 -15.05829,8.28035 -30.5921,16.72148 -28.02394,15.22833 -28.24347,15.37337 -28.26816,18.67666 -0.0249,3.32916 -0.0249,3.32916 -14.40959,0.51906 -14.3847,-2.8101 -14.3847,-2.8101 -13.14851,-5.91981 z"
         id="path935" />
      <text
         xml:space="preserve"
         style="font-style:normal;font-weight:normal;font-size:87.9917px;line-height:1.25;font-family:sans-serif;fill:#d40000;fill-opacity:1;stroke:#d40000;stroke-width:2.5;stroke-miterlimit:4;stroke-dasharray:none;stroke-opacity:1"
         x="55.614323"
         y="366.05167"
         id="text1486"
         transform="rotate(-9.3761667)"><tspan
           x="55.614323"
           y="366.05167"
           id="tspan1488"
           style="font-style:italic;font-variant:normal;font-weight:bold;font-stretch:normal;font-family:Laksaman;-inkscape-font-specification:'Laksaman Bold Italic';fill:#d40000;stroke:#d40000;stroke-width:2.5;stroke-miterlimit:4;stroke-dasharray:none;stroke-opacity:1">RedBox</tspan></text>
    </g>
  </g>
</svg>
