<?xml version="1.0" encoding="UTF-8" standalone="no"?>
<!-- Created with Inkscape (http://www.inkscape.org/) -->

<svg
   version="1.1"
   id="svg2"
   width="215.1196"
   height="379.60944"
   viewBox="0 0 215.1196 379.60944"
   xmlns="http://www.w3.org/2000/svg"
   xmlns:svg="http://www.w3.org/2000/svg">
  <defs
     id="defs6" />
  <g
     id="g13335"
     transform="translate(-42.440203,-78.343146)">
    <path
       style="fill:#d40000;stroke-width:0.556909"
       d="m 135.75888,207.37102 c -3.14451,-1.85252 -5.41085,-4.10903 -7.33072,-7.29889 -1.86633,-3.10093 -2.41386,-5.24795 -2.59224,-10.16502 -0.12459,-3.43452 -0.12459,-3.43452 7.52776,-1.93962 7.65235,1.49492 7.65235,1.49492 9.57653,4.44329 3.75002,5.74604 2.53859,5.3504 35.63527,11.63809 32.4166,6.15848 31.04066,6.05226 35.91288,2.77255 2.95647,-1.99015 4.28355,-3.79272 6.06876,-8.24325 4.47743,-11.16219 17.05421,-45.16147 17.44409,-47.15725 0.58481,-2.99365 -1.05263,-9.02561 -3.06226,-11.28061 -4.10305,-4.60402 -1.02026,-3.74227 -42.08641,-11.76468 -37.16723,-7.26073 -37.16723,-7.26073 -40.42553,-6.2067 -3.82105,1.23608 -7.49902,4.28225 -8.98469,7.44132 -1.05429,2.24171 -1.05429,2.24171 -8.59017,0.76958 -7.5359,-1.47216 -7.5359,-1.47216 -7.38209,-4.42115 0.0846,-1.62194 0.47375,-4.40147 0.8648,-6.17671 1.41453,-6.42164 7.28842,-12.20797 14.16482,-13.95368 3.28375,-0.83364 3.28375,-0.83364 53.02225,8.88295 49.7385,9.71657 49.7385,9.71657 52.55025,11.85144 5.81706,4.41674 8.86918,12.14022 7.52223,19.03522 -0.54413,2.78534 -17.97588,50.2234 -23.60065,64.22585 -2.8185,7.01643 -7.25804,11.03928 -14.06521,12.74504 -3.35315,0.84025 -3.35315,0.84025 -41.63658,-6.51608 -33.50287,-6.43774 -38.56436,-7.52183 -40.53309,-8.68169 z m 110.71534,-55.75291 c 0.7187,-0.48378 1.36299,-1.16768 1.43178,-1.51978 0.19762,-1.01165 -1.19794,-2.97402 -2.26297,-3.18208 -1.16562,-0.22771 -2.9636,0.88986 -3.17534,1.97369 -0.17414,0.89143 1.3322,3.3406 2.15325,3.501 0.30062,0.0587 1.13459,-0.28904 1.85328,-0.77283 z m 2.62185,-7.38827 c 1.05039,-0.70706 2.01328,-1.81533 2.13978,-2.46282 0.29722,-1.52148 -1.99693,-4.92958 -3.51842,-5.22681 -1.52149,-0.29723 -4.92958,1.99692 -5.22681,3.51841 -0.29723,1.52149 1.99692,4.92959 3.51841,5.22682 0.64748,0.12649 2.03665,-0.34853 3.08704,-1.0556 z M 188.64382,108.9478 c 0.76799,-1.9319 2.2883,0.16911 -15.14441,-20.928769 -3.78619,-4.582229 -7.28174,-8.909454 -7.76789,-9.616049 -0.48613,-0.7066 5.40822,4.927662 13.09858,12.520585 12.31859,12.162523 14.15162,13.776203 15.4039,13.560733 1.92451,-0.33114 5.02803,0.3234 6.2464,1.31739 0.86937,0.70925 3.36095,-0.16291 19.29845,-6.755258 10.06511,-4.163311 17.71157,-7.225323 16.99213,-6.804467 -0.71945,0.420845 -8.38609,4.611399 -17.03701,9.312335 -15.60678,8.48079 -15.72904,8.56157 -15.74279,10.4012 -0.0139,1.85404 -0.0139,1.85404 -8.02482,0.28907 -8.01097,-1.56497 -8.01097,-1.56497 -7.32252,-3.2968 z"
       id="path935" />
    <text
       xml:space="preserve"
       style="font-style:normal;font-weight:normal;font-size:49.0033px;line-height:1.25;font-family:sans-serif;fill:#d40000;fill-opacity:1;stroke:#d40000;stroke-width:1.39227;stroke-miterlimit:4;stroke-dasharray:none;stroke-opacity:1"
       x="17.329187"
       y="202.7643"
       id="text1486"
       transform="rotate(-9.3761667)"><tspan
         x="17.329187"
         y="202.7643"
         id="tspan1488"
         style="font-style:italic;font-variant:normal;font-weight:bold;font-stretch:normal;font-family:Laksaman;-inkscape-font-specification:'Laksaman Bold Italic';fill:#d40000;stroke:#d40000;stroke-width:1.39227;stroke-miterlimit:4;stroke-dasharray:none;stroke-opacity:1">RedBox</tspan></text>
    <path
       style="fill:#000000;stroke-width:0.282909"
       d="m 89.083997,366.51642 c -3.39199,-1.17618 -5.78902,-3.31366 -7.30539,-6.51438 l -0.895274,-1.88973 -0.07502,-35.63007 c -0.08199,-38.94095 -0.153043,-37.07819 1.523344,-39.93873 0.88376,-1.50801 3.34735,-3.83504 4.89716,-4.6257 1.54639,-0.78891 4.48755,-1.41352 6.68558,-1.41982 l 1.71469,-0.005 0.37412,-1.45971 c 0.46235,-1.804 2.16641,-3.62507 3.86786,-4.13345 1.524753,-0.45559 8.311383,-0.45559 9.836153,0 1.7108,0.51117 3.40531,2.32865 3.8732,4.15427 l 0.37945,1.48054 3.68972,-0.0916 c 5.24031,-0.13002 5.67614,-0.36319 11.69369,-6.25596 3.55741,-3.48365 5.04192,-4.74848 6.00003,-5.11216 1.14886,-0.43607 2.62582,-0.4754 15.13563,-0.40296 13.23563,0.0766 13.91061,0.10585 14.92583,0.64608 0.58482,0.3112 3.06734,2.55455 5.51673,4.98521 3.03177,3.0086 4.95014,4.67937 6.00942,5.23382 l 1.556,0.81442 15.70144,0.15294 c 17.07051,0.16627 16.47465,0.11025 19.39825,1.82359 1.78557,1.04642 4.2211,3.84605 4.97866,5.72296 l 0.66054,1.63651 v 36.21235 36.21234 l -0.90106,1.90209 c -1.25222,2.64337 -3.09952,4.52533 -5.70697,5.81403 l -2.13272,1.05406 -59.99141,0.0628 c -56.343543,0.059 -60.077643,0.033 -61.409643,-0.42893 z m 121.460633,-6.35543 c 0.64859,-0.42923 1.53045,-1.31106 1.95967,-1.95962 l 0.78042,-1.17921 0.0843,-34.53564 c 0.0595,-24.3817 -0.007,-34.84893 -0.22494,-35.60123 -0.38469,-1.32544 -1.74433,-2.90423 -3.09413,-3.59285 -0.95054,-0.48493 -2.13478,-0.53136 -16.29405,-0.63886 -14.98632,-0.11378 -15.30306,-0.1278 -17.10792,-0.75707 -3.30165,-1.15113 -4.76621,-2.21054 -9.49518,-6.8685 l -4.54426,-4.47602 h -12.53758 -12.53761 l -4.56066,4.47304 c -4.74623,4.65506 -6.24602,5.73761 -9.51156,6.86546 -1.79702,0.62066 -2.18691,0.63802 -17.116,0.76237 -16.834123,0.14022 -16.244183,0.0764 -18.020423,1.94794 -1.73807,1.83127 -1.64189,-0.34294 -1.64016,37.0779 0.001,23.38593 0.0971,34.51422 0.30412,35.25991 0.37281,1.34263 2.41485,3.45019 3.70479,3.82366 0.59135,0.17121 22.790123,0.25498 59.806163,0.2257 l 58.86575,-0.0466 z m -63.99677,-5.31831 c -13.952,-1.54425 -25.34214,-11.5478 -28.78283,-25.27894 -0.83404,-3.32849 -1.03316,-9.94005 -0.40121,-13.32195 1.33695,-7.15473 4.32418,-12.86934 9.32257,-17.83418 11.24282,-11.16737 28.50546,-12.90362 41.70592,-4.19472 3.24817,2.14295 7.65817,6.63666 9.62548,9.8082 3.35126,5.40263 4.83064,10.26207 5.05537,16.60579 0.3159,8.91767 -2.21195,16.13295 -8.09314,23.10039 -6.57652,7.79118 -18.02577,12.26721 -28.43216,11.11541 z m 10.98636,-6.89996 c 9.56557,-2.8401 16.74288,-10.43924 19.01488,-20.13245 0.78137,-3.33363 0.70932,-9.34383 -0.15055,-12.55866 -3.77145,-14.10047 -17.2328,-22.68854 -31.43634,-20.05577 -4.74842,0.88017 -9.34208,3.15775 -13.13679,6.51333 -3.50399,3.0985 -6.90655,8.75744 -8.1427,13.54244 -0.8871,3.43387 -0.88715,9.55679 -1.1e-4,13.09906 2.59298,10.35465 11.19207,18.37641 21.74916,20.28896 0.75314,0.13644 3.21533,0.20438 5.47153,0.15098 3.42811,-0.0811 4.5177,-0.22046 6.63092,-0.84789 z m -9.63338,-11.18242 c -3.34299,-0.50676 -6.48137,-2.14071 -8.77648,-4.56934 -5.14124,-5.44036 -5.46719,-14.06424 -0.74811,-19.79346 6.32395,-7.67763 17.78705,-7.41153 23.76841,0.55174 1.92591,2.56406 2.67947,4.75482 2.83552,8.24345 0.11899,2.66026 0.0557,3.20012 -0.60632,5.16834 -1.21372,3.6087 -3.18882,6.19914 -6.23598,8.17883 -2.82971,1.83841 -6.91367,2.72423 -10.23704,2.22044 z m 6.05647,-6.76083 c 1.84797,-0.95344 3.35161,-2.46147 4.22247,-4.23481 1.06065,-2.15984 1.10815,-5.37664 0.11227,-7.60298 -0.78662,-1.75854 -2.91101,-3.83991 -4.78112,-4.6843 -1.85131,-0.83591 -5.06141,-0.83591 -6.91272,0 -6.62531,2.99146 -7.47616,11.8436 -1.52341,15.84927 1.85766,1.25004 2.7588,1.48068 5.40413,1.38317 1.66056,-0.0612 2.58686,-0.25039 3.47838,-0.71035 z M 94.412317,300.36683 c -1.42853,-0.70448 -1.78826,-1.83246 -1.78826,-5.60724 0,-3.77573 0.35427,-4.98248 1.66112,-5.65827 1.20434,-0.6228 13.797493,-0.6564 14.989473,-0.04 1.2352,0.63874 1.45557,1.51252 1.45557,5.77121 0,6.00049 0.0105,5.99361 -9.11472,5.98429 -5.143923,-0.005 -6.469293,-0.0881 -7.203183,-0.44998 z"
       id="path1281" />
    <text
       xml:space="preserve"
       style="font-style:normal;font-weight:normal;font-size:40px;line-height:0.95;font-family:sans-serif;fill:#000000;fill-opacity:1;stroke:none"
       x="146.86"
       y="417.52353"
       id="text2725"><tspan
         id="tspan2723"
         x="146.86"
         y="417.52353"
         style="font-style:italic;font-variant:normal;font-weight:normal;font-stretch:normal;font-family:Ubuntu;-inkscape-font-specification:'Ubuntu Italic';text-align:center;text-anchor:middle">Preview Not</tspan><tspan
         x="146.86"
         y="457.43259"
         id="tspan2727"
         style="font-style:italic;font-variant:normal;font-weight:normal;font-stretch:normal;font-family:Ubuntu;-inkscape-font-specification:'Ubuntu Italic';text-align:center;text-anchor:middle">Available</tspan></text>
  </g>
</svg>
